<svg xmlns="http://www.w3.org/2000/svg" width="65" height="65" viewBox="0 0 65 65">
  <g id="iconoCategoria" transform="translate(-13 -212)">
    <circle id="Elipse_11" data-name="Elipse 11" cx="32.5" cy="32.5" r="32.5" transform="translate(13 212)" fill="#fff"/>
    <g id="team" transform="translate(21 156.807)">
      <path id="Trazado_63" data-name="Trazado 63" d="M371.613,204.654v.546a6.223,6.223,0,0,0,.319,1.968l1.236,3.709H375.5v-8.556h-1.556A2.333,2.333,0,0,0,371.613,204.654Z" transform="translate(-336.613 -119.684)" fill="#5a4146"/>
      <path id="Trazado_64" data-name="Trazado 64" d="M397.223,198.792l-1.316,4.607-6.222-5.444a1.556,1.556,0,0,1-1.556-1.556h0a2.333,2.333,0,0,1,2.333-2.333h5.444a1.556,1.556,0,0,1,1.556,1.556v1.462A6.221,6.221,0,0,1,397.223,198.792Z" transform="translate(-351.574 -112.205)" fill="#694b4b"/>
      <rect id="Rect치ngulo_18" data-name="Rect치ngulo 18" width="4.667" height="3.442" transform="translate(38.11 93.527)" fill="#e6af78"/>
      <path id="Trazado_65" data-name="Trazado 65" d="M404.645,319.364a6.171,6.171,0,0,0,4.667,0v-1.429h-4.667v1.429Z" transform="translate(-366.534 -224.409)" fill="#d29b6e"/>
      <path id="Trazado_66" data-name="Trazado 66" d="M360.7,339.04l-3.752-1.072-2.333,1.548-2.333-1.548-3.752,1.072a2.333,2.333,0,0,0-1.692,2.244v5.686a.778.778,0,0,0,.778.778h14a.778.778,0,0,0,.778-.778v-5.686A2.333,2.333,0,0,0,360.7,339.04Z" transform="translate(-314.172 -242.555)" fill="#d5dced"/>
      <path id="Trazado_67" data-name="Trazado 67" d="M422.717,362.708h-1.556l.389-8.224h.778Z" transform="translate(-381.495 -257.515)" fill="#afb9d2"/>
      <path id="Trazado_68" data-name="Trazado 68" d="M384.538,244h0a4.667,4.667,0,0,1-4.667-4.667v-.911a1.556,1.556,0,0,1,.456-1.1l1.41-1.41a1.537,1.537,0,0,1,1.129-.457c2.486.078,4.687.611,5.89,1.786a1.535,1.535,0,0,1,.448,1.1v.991A4.667,4.667,0,0,1,384.538,244Z" transform="translate(-344.093 -149.697)" fill="#f0c087"/>
      <path id="Trazado_69" data-name="Trazado 69" d="M382.2,238.616a1.553,1.553,0,0,1,1.649-1.553,16.411,16.411,0,0,1,5.329,1.05,1.5,1.5,0,0,0-.427-.871c-1.2-1.175-3.4-1.708-5.89-1.786h0a1.538,1.538,0,0,0-1.129.457l-1.41,1.41a1.555,1.555,0,0,0-.456,1.1v.911a4.666,4.666,0,0,0,3.374,4.481,4.628,4.628,0,0,1-1.04-2.926v-2.274Z" transform="translate(-344.093 -149.696)" fill="#e6af78"/>
      <path id="Trazado_70" data-name="Trazado 70" d="M478.968,362.656a2.333,2.333,0,0,1,.683-1.65l2-2a2.324,2.324,0,0,1,.426,1.334v5.686a.778.778,0,0,1-.778.778h-2.333v-4.147Z" transform="translate(-433.857 -261.61)" fill="#c7cfe2"/>
      <path id="Trazado_71" data-name="Trazado 71" d="M422.328,356.04h-.778a.389.389,0,0,1-.389-.389v-1.167h1.556v1.167A.389.389,0,0,1,422.328,356.04Z" transform="translate(-381.495 -257.515)" fill="#959cb5"/>
      <g id="Grupo_28" data-name="Grupo 28" transform="translate(37.251 94.795)">
        <path id="Trazado_72" data-name="Trazado 72" d="M398.706,333.577l-1.318,1.007a.467.467,0,0,1-.693-.147l-1.183-2.16.476-.726a.311.311,0,0,1,.472-.058Z" transform="translate(-395.512 -331.411)" fill="#c7cfe2"/>
        <path id="Trazado_73" data-name="Trazado 73" d="M429.419,333.577l1.318,1.007a.467.467,0,0,0,.693-.147l1.183-2.16-.476-.726a.311.311,0,0,0-.472-.058Z" transform="translate(-426.226 -331.411)" fill="#c7cfe2"/>
      </g>
      <path id="Trazado_74" data-name="Trazado 74" d="M15.787,209.172a28.07,28.07,0,0,1-1.306-6.365,5.638,5.638,0,0,0-5.532-5.444,5.638,5.638,0,0,0-5.532,5.444,28.071,28.071,0,0,1-1.306,6.365.775.775,0,0,0,.4.99,14.855,14.855,0,0,0,4.062,1.2H11.32a14.986,14.986,0,0,0,4.062-1.2A.775.775,0,0,0,15.787,209.172Z" transform="translate(-1.864 -115.193)" fill="#5a4146"/>
      <path id="Trazado_75" data-name="Trazado 75" d="M59.347,210.163a.775.775,0,0,0,.4-.99,28.07,28.07,0,0,1-1.306-6.365,5.638,5.638,0,0,0-5.532-5.444h-.023a2.374,2.374,0,0,0-1.155,4.4,2.143,2.143,0,0,0,.2.106l1.768,9.494h1.582A15,15,0,0,0,59.347,210.163Z" transform="translate(-45.83 -115.194)" fill="#694b4b"/>
      <path id="Trazado_76" data-name="Trazado 76" d="M12.71,314.661,10.193,313.4a1.555,1.555,0,0,1-.86-1.391v-2.333H4.667v2.333a1.555,1.555,0,0,1-.86,1.391L1.29,314.661A2.333,2.333,0,0,0,0,316.748v4.6a.778.778,0,0,0,.778.778H13.222a.778.778,0,0,0,.778-.778v-4.6A2.333,2.333,0,0,0,12.71,314.661Z" transform="translate(0 -216.929)" fill="#e6af78"/>
      <path id="Trazado_77" data-name="Trazado 77" d="M51.477,312.788a6.147,6.147,0,0,0,2.375-.48,1.533,1.533,0,0,1-.042-.3v-2.333H49.144v2.333a1.531,1.531,0,0,1-.042.3A6.178,6.178,0,0,0,51.477,312.788Z" transform="translate(-44.477 -216.929)" fill="#d29b6e"/>
      <path id="Trazado_78" data-name="Trazado 78" d="M12.71,353.965l-1.793-.9a4.66,4.66,0,0,1-7.834,0l-1.793.9A2.333,2.333,0,0,0,0,356.051v4.6a.778.778,0,0,0,.778.778H13.222a.778.778,0,0,0,.778-.778v-4.6A2.333,2.333,0,0,0,12.71,353.965Z" transform="translate(0 -256.233)" fill="#d5dced"/>
      <path id="Trazado_79" data-name="Trazado 79" d="M29.747,252.617h0a4.668,4.668,0,0,1-4.628-4.063.784.784,0,0,1,.416-.808,6.492,6.492,0,0,0,1.377-.93,4.491,4.491,0,0,0,1.064-1.4.77.77,0,0,1,.877-.426,13.4,13.4,0,0,1,5.279,2.7.752.752,0,0,1,.268.625A4.667,4.667,0,0,1,29.747,252.617Z" transform="translate(-22.747 -158.313)" fill="#f0c087"/>
      <path id="Trazado_80" data-name="Trazado 80" d="M34.132,247.694a13.4,13.4,0,0,0-5.279-2.7.77.77,0,0,0-.877.426,4.453,4.453,0,0,1-.711,1.038v0a4.179,4.179,0,0,1-.353.36,6.49,6.49,0,0,1-1.377.93.785.785,0,0,0-.416.809,4.674,4.674,0,0,0,3.92,4.009,3.405,3.405,0,0,1-1.626-3.058V248.4c.177-.13.355-.26.533-.42a6.193,6.193,0,0,0,1.112-1.312,11.746,11.746,0,0,1,4.054,2.206c.147.129.513.466.941.868a4.631,4.631,0,0,0,.345-1.418A.752.752,0,0,0,34.132,247.694Z" transform="translate(-22.748 -158.312)" fill="#e6af78"/>
      <path id="Trazado_81" data-name="Trazado 81" d="M.474,369.859a2.328,2.328,0,0,0-.474,1.4v4.6a.778.778,0,0,0,.778.778H3.111v-3.919a1.556,1.556,0,0,0-.584-1.215Z" transform="translate(0 -271.442)" fill="#c7cfe2"/>
      <path id="Trazado_82" data-name="Trazado 82" d="M140.009,328.558l-6.508-2.366-4.667,1.556-4.667-1.556-6.508,2.366a3.111,3.111,0,0,0-2.048,2.924V336.3a.778.778,0,0,0,.778.778H141.28a.778.778,0,0,0,.778-.778v-4.821A3.111,3.111,0,0,0,140.009,328.558Z" transform="translate(-104.724 -231.888)" fill="#ff507d"/>
      <path id="Trazado_83" data-name="Trazado 83" d="M240.225,359.226,239.484,367H242.6l-.741-7.778Z" transform="translate(-216.929 -261.811)" fill="#707487"/>
      <path id="Trazado_84" data-name="Trazado 84" d="M243.727,345.333h-1.633a.544.544,0,0,1-.544-.544v-2.08h2.722v2.08A.544.544,0,0,1,243.727,345.333Z" transform="translate(-218.799 -246.849)" fill="#5b5d6e"/>
      <path id="Trazado_85" data-name="Trazado 85" d="M350.668,359.855a3.107,3.107,0,0,1,.837,2.12V366.8a.778.778,0,0,1-.778.778h-3.889v-2.6a3.111,3.111,0,0,1,.911-2.2Z" transform="translate(-314.172 -262.381)" fill="#d23c69"/>
      <path id="Trazado_86" data-name="Trazado 86" d="M182.272,78.264V71.749a1.556,1.556,0,0,0-1.556-1.556h-9.333a6.222,6.222,0,0,0-6.222,6.222v1.849a7.777,7.777,0,0,0,.4,2.46l.259.777a2.333,2.333,0,0,1,.12.738v.4h15.555v-.4a2.333,2.333,0,0,1,.12-.738l.259-.777A7.775,7.775,0,0,0,182.272,78.264Z" transform="translate(-149.606)" fill="#5a4146"/>
      <path id="Trazado_87" data-name="Trazado 87" d="M206.452,73.353a3.16,3.16,0,0,0,3.16,3.16h.437l.211,6.125H218.9v-.4a2.334,2.334,0,0,1,.12-.738l.259-.777a7.776,7.776,0,0,0,.4-2.46V71.749a1.556,1.556,0,0,0-1.556-1.556h-8.507A3.16,3.16,0,0,0,206.452,73.353Z" transform="translate(-187.008)" fill="#694b4b"/>
      <rect id="Rect치ngulo_19" data-name="Rect치ngulo 19" width="9.334" height="7" transform="translate(19.444 88.86)" fill="#e6af78"/>
      <path id="Trazado_88" data-name="Trazado 88" d="M206.451,271.016a9.279,9.279,0,0,0,9.333,0v-2.63h-9.333v2.63Z" transform="translate(-187.007 -179.526)" fill="#d29b6e"/>
      <g id="Grupo_29" data-name="Grupo 29" transform="translate(17.889 93.009)">
        <path id="Trazado_89" data-name="Trazado 89" d="M196.158,315.294l-2.481,2.481a.778.778,0,0,1-1.169-.08l-2.572-3.389.673-1.418a.778.778,0,0,1,1.111-.329Z" transform="translate(-189.936 -312.443)" fill="#d23c69"/>
        <path id="Trazado_90" data-name="Trazado 90" d="M256,315.294l2.481,2.481a.778.778,0,0,0,1.169-.08l2.572-3.389-.673-1.418a.778.778,0,0,0-1.111-.329Z" transform="translate(-249.778 -312.443)" fill="#d23c69"/>
      </g>
      <path id="Trazado_91" data-name="Trazado 91" d="M181.2,151.839h0a7.778,7.778,0,0,1-7.778-7.778v-.911a1.556,1.556,0,0,1,.456-1.1l.644-.644a1.555,1.555,0,0,0,.456-1.1v-1.864a.772.772,0,0,1,.592-.756c1.84-.434,7.564-1.464,11.459,1.4a1,1,0,0,1,.393.806v.413a1.556,1.556,0,0,0,.456,1.1l.644.644a1.556,1.556,0,0,1,.456,1.1v.911A7.777,7.777,0,0,1,181.2,151.839Z" transform="translate(-157.086 -60.646)" fill="#f0c087"/>
      <path id="Trazado_92" data-name="Trazado 92" d="M187.026,139.1c-2.74-2.015-6.379-2.1-8.94-1.826a20.979,20.979,0,0,0-2.519.425.772.772,0,0,0-.592.756v1.864a1.556,1.556,0,0,1-.456,1.1l-.644.644a1.556,1.556,0,0,0-.456,1.1v.911a7.775,7.775,0,0,0,6.838,7.716,7.746,7.746,0,0,1-2.171-5.382v-5.685a1.557,1.557,0,0,1,1.368-1.545c1.867-.234,5.285-.375,7.965,1.141v-.413A1,1,0,0,0,187.026,139.1Z" transform="translate(-157.086 -60.659)" fill="#e6af78"/>
      <path id="Trazado_93" data-name="Trazado 93" d="M116.45,359.855a3.108,3.108,0,0,0-.837,2.12V366.8a.778.778,0,0,0,.778.778h3.889v-2.6a3.111,3.111,0,0,0-.911-2.2Z" transform="translate(-104.724 -262.381)" fill="#d23c69"/>
    </g>
  </g>
</svg>
