<svg xmlns="http://www.w3.org/2000/svg" width="21.647" height="20" viewBox="0 0 21.647 20">
  <path id="Trazado_1" data-name="Trazado 1" d="M21.013,28.843H20.1V25.719a2.078,2.078,0,0,0-2.076-2.076h-.789v-.167a1.4,1.4,0,0,0-1.4-1.4H12.19a1.4,1.4,0,0,0-1.4,1.4v.167H9.265v-.522a2.078,2.078,0,0,0-2.076-2.076H6.452v-.167a1.4,1.4,0,0,0-1.4-1.4H1.41a1.4,1.4,0,0,0-1.4,1.4v1.6a1.4,1.4,0,0,0,1.4,1.4H5.05a1.4,1.4,0,0,0,1.4-1.4v-.167h.737A.808.808,0,0,1,8,23.121v2.314a.808.808,0,0,1-.807.807H6.444v-.167a1.4,1.4,0,0,0-1.4-1.4H1.4a1.4,1.4,0,0,0-1.4,1.4v1.6a1.4,1.4,0,0,0,1.4,1.4H5.042a1.4,1.4,0,0,0,1.4-1.4V27.51h.745a2.078,2.078,0,0,0,2.076-2.076v-.522h1.523v.167a1.4,1.4,0,0,0,1.4,1.4h3.641a1.4,1.4,0,0,0,1.4-1.4v-.167h.789a.808.808,0,0,1,.807.807v7.516a.808.808,0,0,1-.807.807h-.775v-.167a1.4,1.4,0,0,0-1.4-1.4H12.2a1.4,1.4,0,0,0-1.4,1.4v.167H9.279v-.522A2.078,2.078,0,0,0,7.2,31.444H6.452v-.167a1.4,1.4,0,0,0-1.4-1.4H1.409a1.4,1.4,0,0,0-1.4,1.4v1.6a1.4,1.4,0,0,0,1.4,1.4H5.05a1.4,1.4,0,0,0,1.4-1.4v-.167H7.2a.808.808,0,0,1,.807.807v2.314a.808.808,0,0,1-.807.807H6.458v-.167a1.4,1.4,0,0,0-1.4-1.4H1.416a1.4,1.4,0,0,0-1.4,1.4v1.6a1.4,1.4,0,0,0,1.4,1.4H5.057a1.4,1.4,0,0,0,1.4-1.4v-.167H7.2a2.078,2.078,0,0,0,2.076-2.076v-.522H10.8v.167a1.4,1.4,0,0,0,1.4,1.4h3.641a1.4,1.4,0,0,0,1.4-1.4v-.167h.775A2.078,2.078,0,0,0,20.1,33.235V30.111h.915a.634.634,0,1,0,0-1.269Z" transform="translate(0 -19.477)" fill="#fff"/>
</svg>
