<?xml version="1.0" ?><!DOCTYPE svg  PUBLIC '-//W3C//DTD SVG 1.1//EN'  'http://www.w3.org/Graphics/SVG/1.1/DTD/svg11.dtd'><svg enable-background="new 0 0 800 800" height="800px" id="Layer_1" version="1.1" viewBox="0 0 800 800" width="800px" xml:space="preserve" xmlns="http://www.w3.org/2000/svg" xmlns:xlink="http://www.w3.org/1999/xlink"><g><path d="M489.753,529.822c3.584,0.912,7.42,0.377,10.658-1.541c3.709-2.199,6.209-5.988,6.774-10.279l7.796-59.699   c43.699-20.875,82.193-56.336,109.057-101.543c31.045-52.233,43.4-111.446,34.817-166.76   c-8.739-56.32-38.056-101.905-82.539-128.328c-38.652-22.981-85.888-29.033-133.012-17.039   c-14.839,3.788-29.347,9.243-43.306,16.19c-13.957-6.947-28.467-12.402-43.32-16.19c-47.108-11.994-94.344-5.942-132.996,17.039   C179.199,88.095,149.884,133.679,141.144,190c-8.582,55.314,3.772,114.526,34.817,166.76   c26.863,45.208,65.358,80.668,109.057,101.543l7.796,59.699c0.551,4.291,3.05,8.08,6.775,10.279   c3.222,1.918,7.073,2.453,10.657,1.541c0.55-0.141,1.084-0.314,1.619-0.519l88.134-34.157l88.135,34.157   C488.669,529.508,489.203,529.682,489.753,529.822z M200.168,342.361c-27.696-46.606-38.778-99.185-31.187-148.055   c7.42-47.848,31.956-86.358,69.084-108.428c32.192-19.129,71.851-24.081,111.682-13.942c6.932,1.761,13.785,3.961,20.528,6.555   c-29.944,20.827-56.131,48.917-75.984,82.303c-42.896,72.196-47.8,154.814-19.664,218.003l5.91,45.207   C248.691,405.016,220.696,376.911,200.168,342.361z M340.379,152.542l26.989,26.989l-36.027,34.801l-22.054-22.053   c2.829-5.753,5.879-11.459,9.227-17.086c5.706-9.604,12.025-18.658,18.815-27.209C338.021,149.634,339.027,151.19,340.379,152.542z    M387.283,199.462l30.384,30.369l-36.027,34.801l-30.384-30.369L387.283,199.462z M297.671,220.509l13.408,13.393l-22.541,21.771   C290.598,243.962,293.646,232.204,297.671,220.509z M361.032,480.041l-42.612,16.521l-3.458-26.485l-4.071-31.218l-1.069-8.174   c4.448,4.479,9.18,8.708,14.163,12.685c5.674,4.527,11.679,8.74,18.045,12.528c12.182,7.23,25.275,12.591,38.888,16.441   L361.032,480.041z M399.999,447.975c-15.451-2.986-30.18-8.33-43.571-16.3c-45.302-26.911-69.76-77.399-71.144-133.688   l45.71-44.154l30.384,30.369l-45.977,44.421c-5.596,5.407-5.753,14.32-0.346,19.916c2.751,2.861,6.445,4.291,10.123,4.291   c3.521,0,7.058-1.305,9.793-3.945l46.322-44.751l69.744,69.729c2.751,2.75,6.351,4.118,9.95,4.118s7.215-1.368,9.966-4.118   c5.502-5.501,5.502-14.414,0-19.916l-69.398-69.383l36.027-34.801l68.785,68.769c2.751,2.751,6.35,4.119,9.949,4.119   s7.216-1.368,9.967-4.119c5.501-5.501,5.501-14.414,0-19.916l-68.439-68.423l54.182-52.328c5.596-5.407,5.738-14.32,0.346-19.916   c-5.406-5.596-14.319-5.753-19.915-0.346l-54.528,52.658l-30.385-30.369l54.184-52.328c5.596-5.407,5.736-14.32,0.346-19.916   c-5.408-5.596-14.32-5.753-19.916-0.346l-54.528,52.658l-27.335-27.335c-1.808-1.808-4.008-2.955-6.303-3.584   c13.989-14.257,29.473-26.455,46.008-36.168c9.604-5.643,19.523-10.484,29.725-14.383c6.743-2.594,13.597-4.794,20.529-6.555   c39.83-10.139,79.488-5.187,111.681,13.942c37.128,22.069,61.665,60.58,69.084,108.428c7.593,48.87-3.489,101.449-31.187,148.055   c-20.527,34.55-48.523,62.655-80.369,81.643c-9.793,5.832-19.932,10.83-30.354,14.854c-4.322,1.666-8.691,3.175-13.109,4.511   c-2.625,0.802-5.266,1.572-7.922,2.248C444.829,451.543,421.676,452.156,399.999,447.975z M481.579,496.562l-42.613-16.521   l2.72-1.053c0.581-0.221,1.101-0.535,1.635-0.834c10.516-0.879,21.11-2.53,31.704-5.234c3.349-0.848,6.697-1.822,10.014-2.844   L481.579,496.562z" fill="#4D4D4D"/><path d="M659.531,710.18l-100.866-169.73c-3.82-6.43-12.891-8.725-19.303-4.92l-50.332,29.928   c-6.696,3.977-8.896,12.623-4.92,19.303l100.867,169.73c1.918,3.207,5.014,5.533,8.629,6.461c3.632,0.928,7.467,0.361,10.674-1.541   l50.347-29.928C661.308,725.506,663.509,716.859,659.531,710.18z M602.001,727.988L515.517,582.48l26.125-15.529l86.484,145.508   L602.001,727.988z" fill="#4D4D4D"/><path d="M310.969,565.457l-50.331-29.928c-6.429-3.805-15.483-1.51-19.303,4.92L140.468,710.18   c-3.977,6.68-1.776,15.326,4.904,19.303l50.348,29.928c3.206,1.902,7.042,2.469,10.657,1.541c3.631-0.928,6.728-3.254,8.645-6.461   l100.867-169.73C319.866,578.08,317.665,569.434,310.969,565.457z M197.998,727.988l-26.124-15.529l86.484-145.508l26.125,15.529   L197.998,727.988z" fill="#4D4D4D"/></g></svg>