<svg id="Capa_1" enable-background="new 0 0 512 512" height="512" viewBox="0 0 512 512" width="512" xmlns="http://www.w3.org/2000/svg"><g><path d="m436 482h-5v-45c0-8.284-6.716-15-15-15h-35v-45c0-8.284-6.716-15-15-15h-95v-32h65c8.284 0 15-6.716 15-15s-6.716-15-15-15h-25v-25.949c0-20.353 8.968-39.498 24.603-52.527 10.61-8.842 19.084-19.642 25.078-31.658 44.7-2.439 80.319-39.568 80.319-84.866v-30c0-24.813-20.187-45-45-45h-25v-15c0-8.284-6.716-15-15-15h-200c-8.284 0-15 6.716-15 15v15h-25c-24.813 0-45 20.187-45 45v30c0 45.298 35.619 82.427 80.319 84.865 5.995 12.016 14.468 22.816 25.078 31.658 15.636 13.03 24.603 32.175 24.603 52.528v25.949h-25c-8.284 0-15 6.716-15 15s6.716 15 15 15h65v32h-95c-8.284 0-15 6.716-15 15v45h-35c-8.284 0-15 6.716-15 15v45h-5c-8.284 0-15 6.716-15 15s6.716 15 15 15h40c8.284 0 15-6.716 15-15s-6.716-15-15-15h-5v-30h70v30h-5c-8.284 0-15 6.716-15 15s6.716 15 15 15h40c8.284 0 15-6.716 15-15s-6.716-15-15-15h-5v-45c0-8.284-6.716-15-15-15h-35v-30h190v30h-35c-8.284 0-15 6.716-15 15v45h-5c-8.284 0-15 6.716-15 15s6.716 15 15 15h40c8.284 0 15-6.716 15-15s-6.716-15-15-15h-5v-30h70v30h-5c-8.284 0-15 6.716-15 15s6.716 15 15 15h40c8.284 0 15-6.716 15-15s-6.716-15-15-15zm-40-422c8.271 0 15 6.729 15 15v30c0 25.402-17.314 46.828-40.758 53.12.496-4.011.758-8.073.758-12.17v-85.95zm-295 45v-30c0-8.271 6.729-15 15-15h25v85.949c0 4.098.262 8.16.758 12.17-23.444-6.291-40.758-27.717-40.758-53.119zm94.603 93.477c-15.636-13.03-24.603-32.175-24.603-52.528v-115.949h170v115.949c0 20.353-8.968 39.498-24.603 52.527-22.496 18.747-35.397 46.293-35.397 75.575v25.949h-50v-25.949c0-29.282-12.902-56.828-35.397-75.574z"/><path d="m243.824 90v105c0 8.284 6.716 15 15 15s15-6.716 15-15v-120c0-8.284-6.716-15-15-15h-25.648c-8.284 0-15 6.716-15 15s6.716 15 15 15z"/></g></svg>