<svg id="icons" enable-background="new 0 0 64 64" height="512" viewBox="0 0 64 64" width="512" xmlns="http://www.w3.org/2000/svg"><g><circle cx="13" cy="34.999" fill="#545c66" r="12"/><circle cx="51" cy="34.999" fill="#545c66" r="12"/><path d="m34 10.35v-.01c-.63-.22-1.3-.34-2-.34s-1.37.12-2 .34v.01c-2.33.811-4 3.04-4 5.65 0 .32.03.64.08.94.45 2.87 2.93 5.06 5.92 5.06s5.47-2.18 5.92-5.05c.05-.31.08-.62.08-.95 0-2.61-1.67-4.84-4-5.65z" fill="#8cc152"/><g><path d="m49.01 40.591c.61.26 1.28.41 1.99.41s1.39-.15 2-.41v1.409c0 .55-.9 1-2 1s-2-.45-2-1v-1.399z" fill="#d3b1a9"/><path d="m56 34.001v2c0 2.05-1.24 3.81-3 4.58v.01c-.61.26-1.29.41-2 .41s-1.38-.15-1.99-.41c-1.77-.77-3.01-2.54-3.01-4.59v-.01-1.99l2-1s1 1 3 1 3-1.01 3-1.01z" fill="#eac6bb"/><path d="m49 42c0 .55.9 1 2 1s2-.45 2-1h2c1.58 0 2.87 1.21 2.99 2.76-1.97 1.41-4.38 2.24-6.99 2.24-1.33 0-2.6-.21-3.79-.61-1.16-.38-2.229-.93-3.2-1.63.12-1.55 1.41-2.76 2.99-2.76z" fill="#ed5565"/><path d="m46 33.001c0-2.75 2.24-4.99 5-4.99s5 2.24 5 4.99v1l-2-1.01s-1 1.01-3 1.01-3-1-3-1l-2 1z" fill="#656d78"/></g><g><path d="m18 34.001v2c0 2.05-1.24 3.81-3 4.58v.01c-.61.26-1.29.41-2 .41s-1.38-.15-1.99-.41c-1.77-.77-3.01-2.54-3.01-4.59v-.01-1.99l2-1s1 1 3 1 3-1.01 3-1.01z" fill="#eac6bb"/><path d="m17 42c1.58 0 2.87 1.21 2.99 2.76-.971.7-2.04 1.25-3.2 1.63-1.19.4-2.46.61-3.79.61-2.61 0-5.02-.83-6.99-2.24.12-1.55 1.41-2.76 2.99-2.76h2c0 .55.9 1 2 1s2-.45 2-1z" fill="#5d9cec"/><path d="m18 31.991v2.01l-2-1.01s-1 1.01-3 1.01-3-1-3-1l-2 1v-2c0-2.21 1.79-4 4-4h4v2c1.11 0 2 .89 2 1.99z" fill="#965353"/><path d="m15 42c0 .55-.9 1-2 1s-2-.45-2-1v-1.399l.01-.01c.61.26 1.28.41 1.99.41s1.39-.15 2-.41z" fill="#d3b1a9"/></g><path d="m44.01 44.76c.971.7 2.04 1.25 3.2 1.63-3.47 4.62-8.99 7.61-15.21 7.61s-11.74-2.99-15.21-7.61c1.16-.38 2.229-.93 3.2-1.63 3.03-2.18 5.01-5.74 5.01-9.76 0-5.3-3.44-9.8-8.21-11.39 2.31-3.08 5.54-5.44 9.28-6.67h.01c.45 2.87 2.93 5.06 5.92 5.06s5.47-2.18 5.92-5.05h.01c3.74 1.22 6.971 3.58 9.28 6.66-4.77 1.59-8.21 6.09-8.21 11.39 0 4.02 1.98 7.58 5.01 9.76z" fill="#e6e9ed"/><g><g><path d="m29.501 38c-.404 0-.786-.247-.937-.648l-1.501-4.002c-.193-.518.068-1.094.585-1.288.518-.19 1.094.067 1.288.585l1.501 4.002c.193.518-.068 1.094-.585 1.288-.116.042-.234.063-.351.063z" fill="#656d78"/></g><g><path d="m29.501 38c-.117 0-.235-.021-.351-.063-.518-.194-.779-.771-.586-1.287l1.5-4.002c.193-.52.774-.777 1.287-.586.518.194.779.771.586 1.287l-1.5 4.002c-.15.402-.532.649-.936.649z" fill="#656d78"/></g><g><path d="m35.501 33.998h-2c-.553 0-1-.447-1-1s.447-1 1-1h2c.553 0 1 .447 1 1s-.447 1-1 1z" fill="#656d78"/></g><g><path d="m35.502 38c-.367 0-.721-.202-.896-.553l-2-4.002c-.247-.494-.047-1.095.447-1.342.494-.245 1.095-.047 1.342.447l2 4.002c.247.494.047 1.095-.447 1.342-.143.072-.296.106-.446.106z" fill="#656d78"/></g><g><path d="m35.501 38h-2c-.553 0-1-.447-1-1s.447-1 1-1h2c.553 0 1 .447 1 1s-.447 1-1 1z" fill="#656d78"/></g></g><path d="m34 10.35v-.01c-.323-.112-.657-.197-1-.255v5.915c0 .552-.448 1-1 1s-1-.448-1-1v-5.915c-.343.058-.677.143-1 .255v.01c-.352.122-.682.286-1 .47v5.18c0 1.654 1.346 3 3 3s3-1.346 3-3v-5.181c-.318-.183-.648-.347-1-.469z" fill="#a0d468"/><g fill="#ccd1d9"><path d="m37 44.002h-10c-.553 0-1-.447-1-1s.447-1 1-1h10c.553 0 1 .447 1 1s-.447 1-1 1z"/><path d="m37 47.002h-10c-.553 0-1-.447-1-1s.447-1 1-1h10c.553 0 1 .447 1 1s-.447 1-1 1z"/><path d="m34 50.002h-4c-.553 0-1-.447-1-1s.447-1 1-1h4c.553 0 1 .447 1 1s-.447 1-1 1z"/><path d="m30.001 28.004h-1.999c-.553 0-1-.447-1-1s.447-1 1-1h1.999c.553 0 1 .447 1 1s-.447 1-1 1z"/><path d="m35.998 28.004h-1.999c-.553 0-1-.447-1-1s.447-1 1-1h1.999c.553 0 1 .447 1 1s-.447 1-1 1z"/></g></g></svg>